# xmcd
#
# Track frame offsets:
#	150
#	19127
#	31651
#	42361
#	62316
#	72797
#	85745
#	100600
#	125301
#	142318
#	157216
#	175960
#	191583
#	205745
#	231430
#
# Disc length: 3417 seconds
#
# Revision: 2
# Processed by: cddbd v1.5.2PL0 Copyright (c) Steve Scherf et al.
# Submitted via: audiograbber 1.83.01
#
DISCID=c90d570f
DTITLE=Kummerbuben - Liebi und anderi Verbraeche
DYEAR=2007
DGENRE=Modern Country
TTITLE0=Gäntu
TTITLE1=Es wott es Froueli z'Märit ga
TTITLE2=Tubehuus
TTITLE3=Härz mys Härz
TTITLE4=Dr Tubäkler
TTITLE5=Ds Buggelimanndli
TTITLE6=Guggisberglied
TTITLE7=La mort de l'amante
TTITLE8=Igel
TTITLE9=Cha u ma nid fröhlech sy
TTITLE10=Iri Liebi es Verbräche
TTITLE11=Ds Blüemli
TTITLE12=Du fragsch mi wär i bi
TTITLE13=Glückleche Wahn
TTITLE14=Mys Müeti (Bonus Dräck)
EXTD=
EXTT0=
EXTT1=
EXTT2=
EXTT3=
EXTT4=
EXTT5=
EXTT6=
EXTT7=
EXTT8=
EXTT9=
EXTT10=
EXTT11=
EXTT12=
EXTT13=
EXTT14=
PLAYORDER=
